<svg width="36" height="36" viewBox="0 0 36 36" fill="none" xmlns="http://www.w3.org/2000/svg">
<path d="M18.75 15.375C18.75 15.0766 18.8685 14.7905 19.0795 14.5795C19.2905 14.3685 19.5766 14.25 19.875 14.25H25.125C25.4234 14.25 25.7095 14.3685 25.9205 14.5795C26.1315 14.7905 26.25 15.0766 26.25 15.375C26.25 15.6734 26.1315 15.9595 25.9205 16.1705C25.7095 16.3815 25.4234 16.5 25.125 16.5H19.875C19.5766 16.5 19.2905 16.3815 19.0795 16.1705C18.8685 15.9595 18.75 15.6734 18.75 15.375ZM19.875 22.5C19.5766 22.5 19.2905 22.6185 19.0795 22.8295C18.8685 23.0405 18.75 23.3266 18.75 23.625C18.75 23.9234 18.8685 24.2095 19.0795 24.4205C19.2905 24.6315 19.5766 24.75 19.875 24.75H25.125C25.4234 24.75 25.7095 24.6315 25.9205 24.4205C26.1315 24.2095 26.25 23.9234 26.25 23.625C26.25 23.3266 26.1315 23.0405 25.9205 22.8295C25.7095 22.6185 25.4234 22.5 25.125 22.5H19.875ZM16.17 14.67C16.2805 14.567 16.3692 14.4428 16.4307 14.3048C16.4922 14.1668 16.5252 14.0178 16.5279 13.8668C16.5306 13.7157 16.5028 13.5657 16.4462 13.4256C16.3896 13.2855 16.3054 13.1583 16.1986 13.0514C16.0917 12.9446 15.9645 12.8604 15.8244 12.8038C15.6843 12.7472 15.5343 12.7194 15.3832 12.7221C15.2322 12.7248 15.0832 12.7578 14.9452 12.8193C14.8072 12.8808 14.683 12.9695 14.58 13.08L12.375 15.285L11.67 14.58C11.4567 14.3813 11.1747 14.2731 10.8832 14.2782C10.5918 14.2834 10.3137 14.4014 10.1076 14.6076C9.90145 14.8137 9.78338 15.0918 9.77824 15.3832C9.7731 15.6747 9.88128 15.9567 10.08 16.17L11.58 17.67C11.7909 17.8807 12.0769 17.999 12.375 17.999C12.6731 17.999 12.9591 17.8807 13.17 17.67L16.17 14.67ZM16.17 21.33C16.3807 21.5409 16.499 21.8269 16.499 22.125C16.499 22.4231 16.3807 22.7091 16.17 22.92L13.17 25.92C12.9591 26.1307 12.6731 26.249 12.375 26.249C12.0769 26.249 11.7909 26.1307 11.58 25.92L10.08 24.42C9.96947 24.317 9.88082 24.1928 9.81933 24.0548C9.75784 23.9168 9.72478 23.7678 9.72211 23.6168C9.71945 23.4657 9.74723 23.3157 9.80382 23.1756C9.8604 23.0355 9.94461 22.9083 10.0514 22.8014C10.1583 22.6946 10.2855 22.6104 10.4256 22.5538C10.5657 22.4972 10.7157 22.4694 10.8668 22.4721C11.0178 22.4748 11.1668 22.5078 11.3048 22.5693C11.4428 22.6308 11.567 22.7195 11.67 22.83L12.375 23.535L14.58 21.33C14.7909 21.1193 15.0769 21.001 15.375 21.001C15.6731 21.001 15.9591 21.1193 16.17 21.33ZM23.991 6.126C23.9281 5.27629 23.5462 4.48179 22.9219 3.90198C22.2976 3.32217 21.477 2.99995 20.625 3H15.375C14.5448 3.00003 13.7438 3.30601 13.1251 3.85946C12.5063 4.4129 12.1132 5.17498 12.021 6H9.375C8.47989 6 7.62145 6.35558 6.98851 6.98851C6.35558 7.62145 6 8.47989 6 9.375V29.625C6 30.5201 6.35558 31.3785 6.98851 32.0115C7.62145 32.6444 8.47989 33 9.375 33H26.625C27.0682 33 27.5071 32.9127 27.9166 32.7431C28.326 32.5735 28.6981 32.3249 29.0115 32.0115C29.3249 31.6981 29.5735 31.326 29.7431 30.9166C29.9127 30.5071 30 30.0682 30 29.625V9.375C30 8.93179 29.9127 8.49292 29.7431 8.08344C29.5735 7.67397 29.3249 7.30191 29.0115 6.98851C28.6981 6.67512 28.326 6.42652 27.9166 6.25691C27.5071 6.0873 27.0682 6 26.625 6H23.979L23.991 6.126ZM23.991 6.144L24 6.375C24 6.297 23.997 6.2205 23.9925 6.144H23.991ZM15.375 9.75H20.625C21.795 9.75 22.8255 9.1545 23.4315 8.25H26.625C26.9234 8.25 27.2095 8.36853 27.4205 8.5795C27.6315 8.79048 27.75 9.07663 27.75 9.375V29.625C27.75 29.9234 27.6315 30.2095 27.4205 30.4205C27.2095 30.6315 26.9234 30.75 26.625 30.75H9.375C9.07663 30.75 8.79048 30.6315 8.5795 30.4205C8.36853 30.2095 8.25 29.9234 8.25 29.625V9.375C8.25 9.07663 8.36853 8.79048 8.5795 8.5795C8.79048 8.36853 9.07663 8.25 9.375 8.25H12.5685C13.1745 9.1545 14.205 9.75 15.375 9.75ZM15.375 5.25H20.625C20.9234 5.25 21.2095 5.36853 21.4205 5.5795C21.6315 5.79048 21.75 6.07663 21.75 6.375C21.75 6.67337 21.6315 6.95952 21.4205 7.1705C21.2095 7.38147 20.9234 7.5 20.625 7.5H15.375C15.0766 7.5 14.7905 7.38147 14.5795 7.1705C14.3685 6.95952 14.25 6.67337 14.25 6.375C14.25 6.07663 14.3685 5.79048 14.5795 5.5795C14.7905 5.36853 15.0766 5.25 15.375 5.25Z" fill="#3E3E3E"/>
</svg>
