<svg xmlns="http://www.w3.org/2000/svg" width="25" height="26" viewBox="0 0 25 26">
  <defs>
    <style>
      .cls-1 {
        fill: #ffa827;
        fill-rule: evenodd;
      }
    </style>
  </defs>
  <path id="Arrow" class="cls-1" d="M20.444,0.383A0.515,0.515,0,0,0,20.111.2c-0.148,0-.244.147-0.244,0.422V2.167H1.478a0.614,0.614,0,0,0-.615.614V14.489a0.614,0.614,0,0,0,.615.614H4.859a0.614,0.614,0,0,0,.615-0.614V7.848H19.867V9.393c0,0.275.1,0.422,0.244,0.422a0.516,0.516,0,0,0,.332-0.183L24.5,5.583a0.814,0.814,0,0,0,0-1.152ZM24.12,10.5H20.739a0.592,0.592,0,0,0-.1.011,0.609,0.609,0,0,0-.512.6v6.641H5.731V16.207c0-.283-0.1-0.43-0.258-0.42a0.381,0.381,0,0,0-.174.067,0.828,0.828,0,0,0-.145.115L1.1,20.017a0.814,0.814,0,0,0,0,1.151l4.052,4.049c0.318,0.318.576,0.211,0.576-.239V23.433H24.12a0.615,0.615,0,0,0,.615-0.614V11.111A0.615,0.615,0,0,0,24.12,10.5Z"/>
</svg>
