<svg xmlns="http://www.w3.org/2000/svg" width="25" height="32.353" viewBox="0 0 34 44">
  <defs>
    <style>
      .cls-1 {
        fill: #ffa827;
        fill-rule: evenodd;
      }
    </style>
  </defs>
  <path id="Checklist" class="cls-1" d="M29.658,6.174h-3.91V4.426A1.023,1.023,0,0,0,24.564,3.6H21.528A4.6,4.6,0,0,0,16.948.519,4.682,4.682,0,0,0,12.369,3.6H9.385a0.972,0.972,0,0,0-1.132.823V6.174H4.342A4.372,4.372,0,0,0,.02,10.338V39.8A4.138,4.138,0,0,0,4.342,43.7H29.658A4.138,4.138,0,0,0,33.98,39.8V10.338A4.372,4.372,0,0,0,29.658,6.174ZM10.311,5.66h2.83a1.131,1.131,0,0,0,.978-0.925,2.984,2.984,0,0,1,2.83-2.313,2.932,2.932,0,0,1,2.779,2.313,1.132,1.132,0,0,0,1.029.925h2.933V9.773H10.311V5.66ZM31.922,39.8a2.087,2.087,0,0,1-2.264,1.851H4.342A2.087,2.087,0,0,1,2.078,39.8V10.338A2.314,2.314,0,0,1,4.342,8.231H8.253v2.622a1.08,1.08,0,0,0,1.132.977H24.564a1.131,1.131,0,0,0,1.183-.977V8.231h3.91a2.315,2.315,0,0,1,2.264,2.108V39.8h0ZM13.038,23.5a1.03,1.03,0,0,0-1.441-.051L8.3,26.584,6.915,25.144a1.03,1.03,0,0,0-1.441-.051,1.079,1.079,0,0,0,0,1.491l2.11,2.159a0.927,0.927,0,0,0,.72.309,1.03,1.03,0,0,0,.72-0.309l4.013-3.8a0.976,0.976,0,0,0,.059-1.38A0.809,0.809,0,0,0,13.038,23.5Zm14.767,2.21H15.971a1.028,1.028,0,1,0,0,2.057H27.805A1.028,1.028,0,1,0,27.805,25.71ZM13.038,15.274a1.03,1.03,0,0,0-1.441-.051L8.3,18.358,6.915,16.919a1.03,1.03,0,0,0-1.441-.051,1.079,1.079,0,0,0,0,1.491l2.11,2.159a0.926,0.926,0,0,0,.72.308,1.029,1.029,0,0,0,.72-0.308l4.013-3.8a0.976,0.976,0,0,0,.059-1.38C13.078,15.312,13.059,15.293,13.038,15.274Zm14.767,2.211H15.971a1.028,1.028,0,1,0,0,2.056H27.805A1.028,1.028,0,1,0,27.805,17.484ZM13.038,31.725a1.03,1.03,0,0,0-1.441-.051L8.3,34.809,6.915,33.37a1.03,1.03,0,0,0-1.441-.051,1.079,1.079,0,0,0,0,1.491l2.11,2.159a0.926,0.926,0,0,0,.72.308,1.029,1.029,0,0,0,.72-0.308l4.013-3.8a0.976,0.976,0,0,0,.059-1.38C13.078,31.763,13.059,31.744,13.038,31.725Zm14.767,2.211H15.971a1.028,1.028,0,1,0,0,2.056H27.805A1.028,1.028,0,1,0,27.805,33.935Z"/>
</svg>
