<svg xmlns="http://www.w3.org/2000/svg" width="24" height="27" viewBox="0 0 24 27">
  <defs>
    <style>
      .cls-1 {
        fill: #626262;
        fill-rule: evenodd;
      }
    </style>
  </defs>
  <path id="Icon" class="cls-1" d="M13.213,0.3H9.458a0.9,0.9,0,1,0,0,1.791h3.755A0.9,0.9,0,1,0,13.213.3ZM23.237,6.2l-2.452-2.44a0.922,0.922,0,0,0-1.272,0,0.911,0.911,0,0,0,0,1.266l2.421,2.409a0.843,0.843,0,0,0,.621.247,0.925,0.925,0,0,0,.621-0.247A0.825,0.825,0,0,0,23.237,6.2ZM11.32,4.037A11.181,11.181,0,1,0,22.554,15.219,11.2,11.2,0,0,0,11.32,4.037Zm4.655,12.386H11.32a0.9,0.9,0,0,1-.9-0.9V9.721a0.9,0.9,0,0,1,1.8,0v4.942h3.755A0.881,0.881,0,1,1,15.975,16.423Z"/>
</svg>
