<svg xmlns="http://www.w3.org/2000/svg" width="30" height="30" viewBox="0 0 30 30">
  <defs>
    <style>
      .cls-1 {
        fill: #fff;
        fill-rule: evenodd;
      }
    </style>
  </defs>
  <path id="info_" data-name="info " class="cls-1" d="M27.849,23.654V11.9a3.906,3.906,0,0,0-3.906-3.906,8.877,8.877,0,0,1-1.771,4.744c-1.189,1.583-4.817,5.631-5.227,6.088L15,20.988l-1.945-2.165c-0.41-.456-4.037-4.5-5.227-6.087A8.879,8.879,0,0,1,6.057,7.992,3.906,3.906,0,0,0,2.151,11.9V23.654h25.7ZM22.066,25.4v4.472h4.172a3.634,3.634,0,0,0,3.63-3.63V25.4h-7.8Zm-12.39,0H20.324v4.472H9.676V25.4Zm-1.742,0h-7.8v0.842a3.634,3.634,0,0,0,3.63,3.63H7.934V25.4ZM9.222,11.689c1.168,1.555,4.969,5.79,5.13,5.97L15,18.38l0.648-.722c0.161-.179,3.962-4.414,5.13-5.969A7.223,7.223,0,1,0,9.222,11.689ZM15,3.859a1,1,0,1,1-1,1A1,1,0,0,1,15,3.859ZM14.131,7.078h1.742v5.444H14.131V7.078Z"/>
</svg>
