<svg xmlns="http://www.w3.org/2000/svg" width="25" height="34" viewBox="0 0 25 34">
  <defs>
    <style>
      .cls-1 {
        fill: #4caf50;
        fill-rule: evenodd;
      }
    </style>
  </defs>
  <path id="Flag" class="cls-1" d="M24.292,4.715a0.939,0.939,0,0,0-.945,0,7.521,7.521,0,0,1-3.7.945,7.048,7.048,0,0,1-5.074-2A8.138,8.138,0,0,0,8.709,1.34,8.45,8.45,0,0,0,3.781,2.874V2.42a1.619,1.619,0,1,0-3.239,0V31.58a1.619,1.619,0,1,0,3.239,0V17.54a0.944,0.944,0,0,0,.491-0.194A7.318,7.318,0,0,1,8.709,15.92a7.059,7.059,0,0,1,5.085,2A8.133,8.133,0,0,0,19.65,20.24a8.434,8.434,0,0,0,4.718-1.377,1.081,1.081,0,0,0,.464-0.918V5.66A1.08,1.08,0,0,0,24.292,4.715Z"/>
</svg>
