<svg xmlns="http://www.w3.org/2000/svg" width="32.003" height="31.003" viewBox="0 0 32 31">
  <defs>
    <style>
      .cls-1 {
        fill: #3f51b5;
        fill-rule: evenodd;
      }
    </style>
  </defs>
  <path id="Review" class="cls-1" d="M28.98,20.661a0.512,0.512,0,0,0-.512.512,1.537,1.537,0,0,1-1.537,1.537,0.512,0.512,0,1,0,0,1.024,2.565,2.565,0,0,0,2.562-2.561A0.512,0.512,0,0,0,28.98,20.661ZM5.412,6.317A2.565,2.565,0,0,0,2.851,8.879a0.512,0.512,0,0,0,1.025,0A1.537,1.537,0,0,1,5.412,7.342,0.512,0.512,0,1,0,5.412,6.317ZM30.155,5.179l1.087-1.086a1.024,1.024,0,0,0,0-1.449L29.068,0.47a1.025,1.025,0,0,0-1.449,0L26.532,1.557a1.025,1.025,0,0,0-1.449,0l-0.725.724a1,1,0,0,0-.262.987l-1,1H5.412A4.616,4.616,0,0,0,.8,8.879V21.173a4.616,4.616,0,0,0,4.611,4.61H7.462V29.8a1.012,1.012,0,0,0,.593.928,1.035,1.035,0,0,0,.435.1,1.02,1.02,0,0,0,.66-0.245l5.673-4.8H26.931a4.616,4.616,0,0,0,4.611-4.61V8.879a4.579,4.579,0,0,0-1.088-2.963,1.022,1.022,0,0,0-.3-0.737h0ZM28.344,1.195l2.173,2.174L29.43,4.455,27.256,2.281ZM25.808,2.281L26.17,2.643l2.9,2.9L29.43,5.9l-0.724.724L25.083,3.006ZM14.064,16.763a1.973,1.973,0,0,1,.88.878l-1.452.571Zm1.835,0.5a2.972,2.972,0,0,0-1.459-1.457l0.689-1.746,2.517,2.517Zm2.664-1.22-1.088-1.087,5.8-5.8a0.512,0.512,0,0,0-.724-0.724l-5.8,5.8-1.087-1.087,8.006-8,1.05-1.049,1.087,1.087L23.994,6.992a0.512,0.512,0,0,0,.725.724l1.811-1.811,1.087,1.087Zm11.954,5.127a3.59,3.59,0,0,1-3.586,3.586H14.824a1.007,1.007,0,0,0-.666.244L8.486,29.8V25.784a1.025,1.025,0,0,0-1.025-1.025H5.412a3.59,3.59,0,0,1-3.586-3.586V8.879A3.59,3.59,0,0,1,5.412,5.293H22.071l-7.494,7.493a0.524,0.524,0,0,0-.115.175l-1.92,4.867a1.025,1.025,0,0,0,.948,1.416,1.011,1.011,0,0,0,.383-0.076l4.876-1.923a0.51,0.51,0,0,0,.174-0.114l9.52-9.516a1,1,0,0,0,.261.038,1.02,1.02,0,0,0,.724-0.3L29.9,6.881a3.557,3.557,0,0,1,.615,2V21.173Z"/>
</svg>
